<?xml version="1.0" encoding="UTF-8"?>
<svg width="208px" height="57px" viewBox="0 0 208 57" version="1.1" xmlns="http://www.w3.org/2000/svg" xmlns:xlink="http://www.w3.org/1999/xlink">
    <title>Logo Bananasap Copy 4</title>
    <g id="Page-1" stroke="none" stroke-width="1" fill="none" fill-rule="evenodd">
        <g id="Artboard-Copy-24" transform="translate(-555.000000, -1044.000000)">
            <g id="Logo-Bananasap-Copy-4" transform="translate(557.000000, 1046.000000)">
                <path d="M75.7338004,0 C80.1120841,0 83.089317,2.39285714 83.089317,6.5 C83.089317,9.11375661 82.0174843,10.6015089 80.8434005,11.5054071 L80.7075306,11.6071429 L80.7075306,11.75 C82.704028,12.7142857 84,14.5 84,17.7857143 C84,22.267507 81.1047105,24.8956171 76.4693428,24.9969571 L76.1891419,25 L64,25 L64,0 L75.7338004,0 Z M99.5190616,0 L108,24.6428571 L108,25 L101.876833,25 L100.434018,20.25 L91.2844575,20.25 L89.8416422,25 L84,25 L84,24.6428571 L92.4457478,0 L99.5190616,0 Z M74.81,14.525 L69,14.525 L69,19.95 L74.81,19.95 C77.155,19.95 77.925,18.69 77.925,17.22 C77.925,15.995 77.19,14.525 74.81,14.525 Z M96.075,6.81 L95.935,6.81 L92.96,16.33 L99.05,16.33 L96.075,6.81 Z M74.46,5.145 L69,5.145 L69,9.765 L74.46,9.765 C76.315,9.765 77.05,8.785 77.05,7.455 C77.05,6.125 76.315,5.145 74.46,5.145 Z M116.322786,0 L125.307861,16.3214286 L125.447164,16.3214286 L125.447164,0 L130.88,0 L130.88,25 L124.402388,25 L115.417313,8.78571429 L115.27801,8.78571429 L115.27801,25 L109.88,25 L109.88,0 L116.322786,0 Z M148.304062,0 L156.785,24.6428571 L156.785,25 L150.661833,25 L149.219018,20.25 L140.069457,20.25 L138.626642,25 L132.785,25 L132.785,24.6428571 L141.230748,0 L148.304062,0 Z M144.65,6.81 L144.51,6.81 L141.535,16.33 L147.625,16.33 L144.65,6.81 Z M164.897786,0 L173.882861,16.3214286 L174.022164,16.3214286 L174.022164,0 L179.455,0 L179.455,25 L172.977388,25 L163.992313,8.78571429 L163.85301,8.78571429 L163.85301,25 L158.455,25 L158.455,0 L164.897786,0 Z M196.879062,0 L205.36,24.6428571 L205.36,25 L199.236833,25 L197.794018,20.25 L188.644457,20.25 L187.201642,25 L181.36,25 L181.36,24.6428571 L189.805748,0 L196.879062,0 Z M193.225,6.81 L193.085,6.81 L190.11,16.33 L196.2,16.33 L193.225,6.81 Z" id="BANANA" fill="#000000" fill-rule="nonzero"></path>
                <path d="M74.025,53.315 C81.375,53.315 84.245,50.165 84.245,45.79 C84.245,40.995 80.78,39.14 76.23,38.195 L72.905,37.495 C70.63,37.005 70.14,36.165 70.14,35.22 C70.14,34.205 71.12,33.085 73.99,33.085 C76.895,33.085 78.12,34.555 78.26,36.165 L83.825,36.165 C83.79,31.475 79.66,28.185 74.06,28.185 C68.285,28.185 64.505,31.09 64.505,35.22 C64.505,39.91 67.83,41.66 72.065,42.57 L75.635,43.34 C77.805,43.795 78.61,44.6 78.61,45.93 C78.61,47.4 77.385,48.45 74.025,48.45 C71.365,48.45 69.51,47.26 69.265,44.6 L63.7,44.6 C64.015,49.885 67.48,53.315 74.025,53.315 Z M120.9,28.185 C128.775,28.185 132.8,33.715 132.8,40.75 C132.8,47.75 128.775,53.315 120.9,53.315 C112.99,53.315 109,47.75 109,40.75 C109,33.715 112.99,28.185 120.9,28.185 Z M91.495,28.5 L91.495,37.88 L101.33,37.88 L101.33,28.5 L106.825,28.5 L106.825,53 L101.33,53 L101.33,42.815 L91.495,42.815 L91.495,53 L86,53 L86,28.5 L91.495,28.5 Z M146.13,28.5 C151.135,28.5 154.215,32.035 154.215,36.585 C154.215,41.1881481 151.180586,44.678678 146.402322,44.8063783 L146.13,44.81 L140.495,44.81 L140.495,53 L135,53 L135,28.5 L146.13,28.5 Z M120.9,33.155 C116.805,33.155 114.6,35.815 114.6,40.75 C114.6,45.685 116.84,48.345 120.9,48.345 C124.96,48.345 127.2,45.685 127.2,40.75 C127.2,35.815 124.96,33.155 120.9,33.155 Z M145.24,33.365 L140.69,33.365 L140.69,39.91 L145.24,39.91 C147.585,39.91 148.81,38.825 148.81,36.585 C148.81,34.485 147.48,33.365 145.24,33.365 Z" id="SHOP" fill="#FFC100" fill-rule="nonzero"></path>
                <circle id="Oval" stroke="#000000" stroke-width="3.3" fill="#FFC100" cx="26.5" cy="26.5" r="26.5"></circle>
            </g>
        </g>
    </g>
</svg>